<svg width="271" height="20" viewBox="0 0 271 20" fill="none" xmlns="http://www.w3.org/2000/svg">
<path d="M12.4844 5.95473C11.6328 2.70687 7.444 1.8784 4.60485 3.42468C1.50578 5.1129 -0.336283 8.91752 0.0511524 12.1867C0.407839 15.1984 2.70047 17.9082 5.85818 18.7737C8.89698 19.6067 13.4343 18.6351 14.4396 15.4834C15.2862 12.8294 10.8362 11.6956 9.99205 14.3424C10.3479 13.9337 10.2885 13.941 9.8133 14.365C9.49064 14.5523 9.14134 14.6752 8.76579 14.7332C8.216 14.8336 7.61291 14.7966 7.08444 14.634C5.95411 14.2867 5.10422 13.4045 4.7627 12.3543C4.34246 11.0614 4.76762 9.66585 5.51584 8.55042C5.6581 8.33901 7.74657 5.98945 8.03684 7.09611C8.73996 9.77881 13.1891 8.64277 12.4844 5.95473Z" fill="#212020"/>
<path d="M218.874 4.90966C218.987 8.56347 218.813 12.3426 219.232 15.977C219.67 19.7725 224.659 18.7175 227.557 18.6468C230.194 18.583 230.204 14.7614 227.557 14.8256C226.251 14.8575 224.621 14.6622 223.345 14.9282C222.554 14.7858 222.431 14.9 222.976 15.2702C223.368 15.798 223.473 15.6836 223.289 14.9275C223.385 14.3365 223.246 13.5223 223.227 12.9241C223.145 10.2526 223.062 7.58115 222.98 4.90966C222.904 2.4559 218.798 2.44571 218.874 4.90966Z" fill="#212020"/>
<path d="M221.948 12.6832C222.975 12.638 224 12.5925 225.026 12.5473C226.097 12.5001 227.13 11.7022 227.079 10.6367C227.031 9.64211 226.175 8.67541 225.026 8.72603C224 8.7712 222.975 8.81672 221.948 8.86189C220.877 8.90911 219.844 9.70699 219.896 10.7725C219.943 11.7671 220.8 12.7338 221.948 12.6832Z" fill="#212020"/>
<path d="M221.432 6.61309C223.404 6.28735 225.384 6.10766 227.386 6.04279C230.021 5.95719 230.033 2.13559 227.386 2.22152C225.019 2.29829 222.672 2.54353 220.34 2.92837C219.248 3.10874 218.633 4.35022 218.907 5.27854C219.223 6.35087 220.336 6.79379 221.432 6.61309Z" fill="#212020"/>
<path d="M260.809 5.07162C260.892 8.86571 260.664 12.7963 261.06 16.5724C261.422 20.0248 266.265 18.9494 268.872 18.9114C271.511 18.8723 271.519 15.0511 268.872 15.0901C267.913 15.1041 266.954 15.118 265.995 15.1322L264.717 15.1509C264.503 15.154 264.29 15.1574 264.077 15.1604C263.599 15.1452 263.65 15.1778 264.228 15.2579C264.542 15.6387 264.857 16.0191 265.171 16.3999C264.772 14.6992 265.078 12.5623 265.04 10.8222L264.914 5.07162C264.861 2.61616 260.755 2.60767 260.809 5.07162Z" fill="#212020"/>
<path d="M263.829 6.75579C265.548 6.39065 267.266 6.15186 269.026 6.04521C271.649 5.8859 271.668 2.06329 269.026 2.22395C266.908 2.35234 264.807 2.63155 262.737 3.07108C260.163 3.61794 261.253 7.303 263.829 6.75579Z" fill="#212020"/>
<path d="M264.924 12.553C266.217 12.6117 267.525 12.4687 268.776 12.1603C269.814 11.9042 270.549 10.7853 270.21 9.80982C269.864 8.81697 268.797 8.20116 267.684 8.47561C266.691 8.72017 266.025 8.78165 264.924 8.73172C263.85 8.6828 262.824 9.64542 262.872 10.6423C262.924 11.7194 263.774 12.5007 264.924 12.553Z" fill="#212020"/>
<path d="M52.9433 4.74413C52.9412 7.0475 52.9392 9.35088 52.9367 11.6539C52.9355 13.3341 52.6256 15.4261 53.5845 16.9571C54.5734 18.5365 56.3285 18.7518 58.1103 18.5255C60.1213 18.2694 62.3725 18.2561 64.0039 17.0574C66.3322 15.3467 63.0486 12.3274 60.7424 14.0217C61.4271 13.5188 59.8507 13.9657 59.6363 13.9962C59.1652 14.063 58.2838 14.0053 57.9164 14.2396C57.4519 14.1961 57.356 14.4243 57.6282 14.9231C57.6052 14.8266 57.5823 14.7296 57.5593 14.6327C57.5277 14.0053 57.5474 13.3726 57.5482 12.7453C57.5507 10.0782 57.5532 7.41117 57.5556 4.74413C57.5581 1.98168 52.9458 1.9771 52.9433 4.74413Z" fill="#212020"/>
<path d="M71.7074 16.4906C71.5274 14.4559 71.4073 12.3864 71.5738 10.3471C71.6521 9.387 72.0374 8.62455 72.258 7.72778C72.3306 7.43356 72.0538 7.07065 72.1842 7.40913C72.2609 7.60872 72.3294 7.71289 72.3991 7.9224C73.0333 9.82127 72.7004 12.0334 73.8242 13.798C74.9036 15.4927 77.3627 14.9585 78.0392 13.2851C78.3889 12.4208 78.4803 11.4633 78.6521 10.5589C78.7481 10.0521 78.8223 8.33529 79.2483 8.06473C79.1056 8.29904 79.2327 8.33148 79.6299 8.16166C79.7677 8.33148 79.8517 8.52304 79.8821 8.73674C80.0715 9.11682 80.0248 9.67969 80.0473 10.0796C80.1527 11.9415 80.2158 13.8453 79.8891 15.6904C79.4106 18.3933 83.8544 19.5557 84.3366 16.8318C85.0032 13.0668 86.0573 4.02467 79.7169 3.85867C74.0882 3.71099 74.9656 8.74552 73.5917 12.1437C74.9967 11.9728 76.4017 11.8022 77.8067 11.6312C78.0396 11.9964 77.6911 11.2466 77.6505 11.0775C77.5439 10.6333 77.4574 10.1857 77.375 9.73693C77.2299 8.94701 77.1204 8.15098 76.9646 7.36334C76.578 5.40913 75.3513 3.52171 73.1104 3.1214C70.277 2.61539 68.2808 4.99776 67.5104 7.21833C66.5076 10.1094 66.8323 13.516 67.0951 16.4906C67.3366 19.2248 71.9513 19.2489 71.7074 16.4906Z" fill="#212020"/>
<path d="M182.795 15.3859C182.871 14.0467 182.947 12.7071 183.023 11.3679C183.057 10.7592 183.092 10.1505 183.127 9.54135C183.148 9.1577 183.542 7.71199 182.961 8.3147C182.306 8.50773 181.651 8.70116 180.996 8.89419C180.511 8.49972 180.444 8.49932 180.796 8.89339C181.017 9.17893 181.24 9.46206 181.467 9.74239C181.844 10.2101 182.227 10.6707 182.616 11.1264C183.47 12.128 184.35 13.1048 185.263 14.0411C186.628 15.4419 188.268 16.9385 190.257 16.4167C194.869 15.2064 193.382 7.60066 192.888 3.91991C192.505 1.06253 188.614 2.27677 188.995 5.11773C189.206 6.68998 189.334 8.27466 189.375 9.86373C189.385 10.237 189.534 11.7379 189.265 12.0567C189.348 12.0511 189.431 12.0455 189.514 12.0399C189.176 11.8801 188.876 11.6551 188.616 11.3647C186.612 9.61904 185.201 7.17736 183.324 5.31115C181.839 3.83541 179.71 4.55066 179.285 6.75126C178.758 9.48489 178.916 12.5958 178.758 15.3859C178.594 18.2813 182.632 18.2701 182.795 15.3859Z" fill="#212020"/>
<path d="M113.049 16.1045C112.927 14.5086 112.851 12.9127 112.847 11.3123C112.845 10.0869 112.514 7.77593 113.156 6.67614C112.104 6.93296 111.052 7.1894 110 7.44622C110.944 8.07206 111.501 9.43096 112.113 10.3132C112.863 11.3917 113.657 12.4415 114.492 13.4638C115.655 14.8883 117.247 17.5531 119.279 17.937C122.045 18.4594 122.545 15.7721 122.783 13.9015C123.125 11.2157 123.075 8.54182 122.69 5.86332C122.302 3.16498 117.685 3.1291 118.078 5.86332C118.305 7.44203 118.434 9.01806 118.411 10.6124C118.4 11.3459 118.361 12.077 118.292 12.8078C118.257 13.2257 118.209 13.642 118.146 14.0568C117.914 14.9162 117.952 15.0135 118.261 14.3495C119.009 14.1656 119.757 13.9812 120.505 13.7973C121.071 14.1927 121.153 14.2037 120.749 13.8309C120.498 13.571 120.25 13.3077 120.006 13.041C119.68 12.6865 119.358 12.3277 119.043 11.9641C118.144 10.9246 117.305 9.84195 116.509 8.73186C115.215 6.92571 114.265 5.02455 112.328 3.73929C111.335 3.08026 109.727 3.55918 109.173 4.50938C108.219 6.14533 108.292 8.01406 108.25 9.83661C108.203 11.929 108.277 14.0175 108.437 16.1045C108.647 18.8444 113.261 18.8658 113.049 16.1045Z" fill="#212020"/>
<path d="M42.1682 2.31058C37.282 2.90894 33.9328 6.40598 33.6393 11.0013C33.5064 13.0822 33.9996 15.4237 35.6551 16.9219C37.2951 18.406 40.126 18.9715 42.3412 18.8826C44.6113 18.7914 46.43 17.5672 48.0621 16.1995C49.9079 14.6529 50.4933 12.8948 50.7336 10.6422C51.2583 5.72825 47.0859 3.0467 42.3334 2.49756C39.395 2.15793 39.4213 6.45407 42.3334 6.79064C44.7744 7.07265 46.4127 8.26899 46.1212 10.6422C45.9064 12.3915 44.3403 14.2797 42.335 14.5628C41.4708 14.6846 39.9633 14.5254 39.1958 14.0549C38.1921 13.4394 38.152 12.0129 38.2516 11.0013C38.4492 8.99404 39.8526 6.88719 42.1682 6.60365C45.0688 6.24838 45.1069 1.95072 42.1682 2.31058Z" fill="#212020"/>
<path d="M26.5163 3.12041C16.4663 -0.13661 11.4916 15.2776 21.2988 18.5156C25.5696 19.9256 29.9028 17.3242 31.1991 13.4677C32.5037 9.58635 30.7834 4.5728 26.3634 3.29595C23.5222 2.47511 22.307 6.61783 25.1371 7.43562C28.8626 8.51175 26.8074 16.1527 22.5374 14.3603C18.4654 12.6507 20.8327 5.8157 25.29 7.26008C28.0992 8.17059 29.3062 4.02481 26.5163 3.12041Z" fill="#212020"/>
<path d="M231.266 5.63741L232.548 15.8631C232.85 18.2768 236.959 18.3053 236.653 15.8631L235.371 5.63741C235.069 3.22374 230.96 3.19554 231.266 5.63741Z" fill="#212020"/>
<path d="M234.269 7.14302C235.469 6.34038 238.716 4.96778 239.549 6.92121C240.341 8.77885 237.918 10.0105 236.321 10.1698C233.722 10.4286 233.693 14.2529 236.321 13.9911C240.627 13.5621 244.964 10.3872 243.508 5.90527C242.01 1.29835 235.701 1.4991 232.197 3.84348C230.071 5.26601 232.118 8.58219 234.269 7.14302Z" fill="#212020"/>
<path d="M235.465 14.398C238.208 15.1531 240.787 16.3266 243.051 17.9659C245.112 19.4577 248.038 16.7723 245.954 15.2638C243.109 13.2044 240.02 11.6667 236.557 10.7133C234.018 10.0143 232.933 13.701 235.465 14.398Z" fill="#212020"/>
<path d="M254.909 3.35566C252.528 2.74128 249.693 3.00976 247.86 4.62064C246.335 5.95972 245.848 8.15874 247.161 9.75533C248.789 11.734 251.24 10.9512 253.492 11.6128C254.673 11.9597 255.268 12.6206 254.254 13.5094C253.869 13.847 253.347 14.0969 252.837 14.259C252.495 14.3644 252.143 14.4345 251.782 14.4694C251.129 14.4198 251.052 14.4571 251.551 14.5813C249.603 12.894 246.603 15.5353 248.553 17.2246C252.096 20.2935 259.471 16.3298 259.097 12.2913C258.896 10.1338 256.861 8.57973 254.618 8.00821C254.273 7.92016 250.655 7.69355 250.603 7.55831C250.269 6.68841 253.381 6.85687 253.782 6.96021C256.406 7.63706 257.526 4.03085 254.909 3.35566Z" fill="#212020"/>
<path d="M162.38 5.08645C163.014 9.68152 164.603 18.6848 170.359 18.6982C176.652 18.7133 177.35 9.76983 176.305 4.9629C175.699 2.17196 171.692 3.3536 172.299 6.14731C172.69 7.94471 172.795 9.84863 172.338 11.6492C172.007 12.9532 171.046 15.05 169.588 13.8192C168.421 12.8332 167.836 10.7063 167.425 9.259C166.928 7.50991 166.635 5.70776 166.386 3.90205C165.996 1.07626 161.993 2.2773 162.38 5.08645Z" fill="#212020"/>
<path d="M203.534 6.39842C204.492 8.5181 205.264 10.7041 205.908 12.9274C206.459 14.8324 207.087 16.5322 208.381 18.1058C209.399 19.3436 211.252 18.4348 211.718 17.2704C213.256 13.4199 214.795 9.56953 216.334 5.71912C217.245 3.43895 213.387 2.45313 212.484 4.71277C210.945 8.56352 209.406 12.4139 207.868 16.2643C208.98 15.9858 210.092 15.7075 211.204 15.4293C210.037 14.0104 209.791 11.9217 209.25 10.2472C208.616 8.28292 207.835 6.37487 206.981 4.48802C205.972 2.25563 202.531 4.18184 203.534 6.39842Z" fill="#212020"/>
<path d="M97.3683 4.22494C94.0622 3.97231 90.7762 5.43845 88.9751 8.04673C87.0945 10.7703 87.2684 14.6333 90.1005 16.7233C92.5432 18.526 96.0953 18.4803 98.4323 16.536C101.164 14.2631 101.402 10.6123 101.492 7.44188C99.982 7.63192 98.472 7.82235 96.962 8.01239C98.0022 11.1889 99.4789 14.1895 101.423 16.9752C103.033 19.2843 107.028 17.1347 105.405 14.8084C103.67 12.3215 102.339 9.70825 101.41 6.871C100.651 4.5535 96.9489 4.99616 96.8796 7.44188C96.8366 8.95496 96.6664 15.2335 93.2824 13.5541C91.8036 12.8203 92.2509 11.0072 93.1303 9.98491C94.1803 8.76415 95.7702 8.3959 97.3683 8.51802C100.327 8.74431 100.311 4.45008 97.3683 4.22494Z" fill="#212020"/>
<path d="M140.214 1.60706C136.498 2.52101 131.296 4.95528 133.267 9.30255C134.134 11.2152 135.902 12.1513 137.828 13.0041C138.381 13.2488 139.057 13.4831 139.543 13.8418C139.757 14.0001 140.319 14.8485 140.366 14.4157C140.558 14.1539 140.479 14.1375 140.13 14.3669C139.821 14.5214 139.491 14.6206 139.141 14.6645C138.428 14.7729 137.736 14.618 137.06 14.4226C134.219 13.6014 133.004 17.7441 135.834 18.5623C139.796 19.7078 146.928 17.7471 144.392 12.724C143.359 10.6775 141.288 9.85169 139.236 8.89805C138.367 8.49469 137.091 8.01158 137.851 7.17089C138.523 6.42676 140.501 5.97799 141.44 5.74674C144.307 5.04153 143.091 0.899179 140.214 1.60706Z" fill="#212020"/>
<path d="M196.515 10.524C196.674 13.0758 196.959 15.6123 197.351 18.1337C197.537 19.3316 198.886 20.0023 199.879 19.7037C201.038 19.3556 201.501 18.1397 201.314 16.9381C200.983 14.8109 200.759 12.6769 200.625 10.524C200.445 7.65253 196.333 7.63095 196.515 10.524Z" fill="#212020"/>
<path d="M197.631 5.57143H197.784C198.067 5.58302 198.331 5.51867 198.576 5.37797C198.831 5.28724 199.051 5.13215 199.237 4.91271C199.438 4.70926 199.579 4.46824 199.662 4.18924C199.791 3.92144 199.85 3.63245 199.839 3.32308C199.815 3.12402 199.79 2.92457 199.766 2.72551C199.668 2.34459 199.492 2.01364 199.237 1.73344C199.099 1.61593 198.96 1.49881 198.821 1.3817C198.501 1.17825 198.155 1.07592 197.784 1.07473H197.631C197.349 1.06313 197.085 1.12749 196.84 1.26818C196.585 1.35892 196.365 1.514 196.179 1.73344C195.978 1.93689 195.836 2.17792 195.753 2.45691C195.625 2.72472 195.566 3.0137 195.577 3.32308C195.601 3.52213 195.625 3.72158 195.65 3.92064C195.748 4.30156 195.924 4.63252 196.179 4.91271C196.317 5.03022 196.456 5.14734 196.594 5.26445C196.915 5.4679 197.261 5.57023 197.631 5.57143Z" fill="#212020"/>
<path d="M128.409 1.5317C127.985 3.25067 127.257 4.87917 126.091 6.2725C125.333 7.17723 125.158 8.41615 126.091 9.29947C126.877 10.0444 128.524 10.2102 129.286 9.29947C130.944 7.31993 132.157 5.14203 132.767 2.66988C133.428 -0.0103235 129.072 -1.15421 128.409 1.5317Z" fill="#212020"/>
</svg>
